<svg xmlns="http://www.w3.org/2000/svg" fill="none" height="9" width="10"><path style="line-height:normal;font-variant-ligatures:normal;font-variant-position:normal;font-variant-caps:normal;font-variant-numeric:normal;font-variant-alternates:normal;font-variant-east-asian:normal;font-feature-settings:normal;font-variation-settings:normal;text-indent:0;text-align:start;text-decoration-line:none;text-decoration-style:solid;text-decoration-color:#000;text-transform:none;text-orientation:mixed;white-space:normal;shape-padding:0;shape-margin:0;inline-size:0;isolation:auto;mix-blend-mode:normal;solid-color:#000;solid-opacity:1" d="M7.01.5C6.126.5 5.482.963 5 1.464 4.518 1.001 3.874.5 2.99.5 1.583.5.578 1.618.578 3.006c0 .694.281 1.31.804 1.735L5 8.018 8.618 4.74c.482-.463.804-1.041.804-1.735C9.422 1.618 8.417.5 7.01.5z" color="#000" font-weight="400" font-family="sans-serif" overflow="visible" fill="#fff"/><path style="line-height:normal;font-variant-ligatures:normal;font-variant-position:normal;font-variant-caps:normal;font-variant-numeric:normal;font-variant-alternates:normal;font-variant-east-asian:normal;font-feature-settings:normal;font-variation-settings:normal;text-indent:0;text-align:start;text-decoration-line:none;text-decoration-style:solid;text-decoration-color:#000;text-transform:none;text-orientation:mixed;white-space:normal;shape-padding:0;shape-margin:0;inline-size:0;isolation:auto;mix-blend-mode:normal;solid-color:#000;solid-opacity:1" d="M2.99 0C1.318 0 .078 1.377.078 3.006c0 .83.35 1.604.988 2.123L5 8.69l3.959-3.584.006-.005c.552-.53.957-1.247.957-2.096C9.922 1.376 8.682 0 7.01 0c-.866 0-1.503.398-2.012.838C4.5.418 3.87 0 2.99 0zm0 1c.696 0 1.213.39 1.664.824l.36.346.347-.36C5.796 1.36 6.3 1 7.01 1c1.142 0 1.912.86 1.912 2.006 0 .54-.238.98-.65 1.375L5 7.344 1.707 4.36l-.01-.007c-.407-.331-.619-.789-.619-1.348C1.078 1.86 1.848 1 2.99 1z" color="#000" font-weight="400" font-family="sans-serif" overflow="visible" fill="#000"/></svg>